<?xml version="1.0" encoding="UTF-8" standalone="no"?>
<!-- Created with Inkscape (http://www.inkscape.org/) -->

<svg
   xmlns:dc="http://purl.org/dc/elements/1.1/"
   xmlns:cc="http://creativecommons.org/ns#"
   xmlns:rdf="http://www.w3.org/1999/02/22-rdf-syntax-ns#"
   xmlns:svg="http://www.w3.org/2000/svg"
   xmlns="http://www.w3.org/2000/svg"
   xmlns:sodipodi="http://sodipodi.sourceforge.net/DTD/sodipodi-0.dtd"
   xmlns:inkscape="http://www.inkscape.org/namespaces/inkscape"
   width="36.682514mm"
   height="6.8646998mm"
   viewBox="0 0 36.682514 6.8646998"
   version="1.1"
   id="svg8"
   inkscape:version="0.92.4 (5da689c313, 2019-01-14)"
   sodipodi:docname="autompc-logo.svg">
  <defs
     id="defs2" />
  <sodipodi:namedview
     id="base"
     pagecolor="#ffffff"
     bordercolor="#666666"
     borderopacity="1.0"
     inkscape:pageopacity="0.0"
     inkscape:pageshadow="2"
     inkscape:zoom="1"
     inkscape:cx="448.13337"
     inkscape:cy="-180.76165"
     inkscape:document-units="mm"
     inkscape:current-layer="layer1"
     showgrid="false"
     fit-margin-top="0"
     fit-margin-left="0"
     fit-margin-right="0"
     fit-margin-bottom="0" />
  <metadata
     id="metadata5">
    <rdf:RDF>
      <cc:Work
         rdf:about="">
        <dc:format>image/svg+xml</dc:format>
        <dc:type
           rdf:resource="http://purl.org/dc/dcmitype/StillImage" />
        <dc:title />
      </cc:Work>
    </rdf:RDF>
  </metadata>
  <g
     inkscape:label="Layer 1"
     inkscape:groupmode="layer"
     id="layer1"
     transform="translate(-22.794473,-94.142113)">
    <g
       aria-label="Auto"
       style="font-style:normal;font-weight:normal;font-size:9.22595119px;line-height:1.25;font-family:sans-serif;letter-spacing:0px;word-spacing:0px;fill:#213e8a;fill-opacity:0.7372549;stroke:none;stroke-width:0.26458332"
       id="text4520">
      <path
         d="M 27.565119,100.79244 26.826322,98.783275 H 24.0243 l -0.738797,2.009165 h -0.49103 l 2.437129,-6.459965 h 0.423457 l 2.410099,6.459965 z m -1.982138,-5.405828 q -0.04955,-0.135146 -0.08109,-0.265787 -0.03153,-0.112622 -0.06757,-0.225243 h -0.01802 q -0.07658,0.297321 -0.14866,0.48202 l -1.085671,2.995731 h 2.491187 z"
         style="font-style:normal;font-variant:normal;font-weight:300;font-stretch:normal;font-family:'Segoe UI';-inkscape-font-specification:'Segoe UI Light';fill:#213e8a;fill-opacity:0.7372549;stroke-width:0.26458332"
         id="path826" />
      <path
         d="m 32.115027,100.79244 v -0.837901 h -0.01802 q -0.48202,0.950521 -1.486603,0.950521 -1.635264,0 -1.635264,-2.058717 v -2.666876 h 0.418952 v 2.563264 q 0,0.937011 0.30633,1.360469 0.310835,0.42346 0.97305,0.42346 0.644195,0 1.040622,-0.47301 0.400933,-0.473015 0.400933,-1.261365 v -2.612818 h 0.414447 v 4.612973 z"
         style="font-style:normal;font-variant:normal;font-weight:300;font-stretch:normal;font-family:'Segoe UI';-inkscape-font-specification:'Segoe UI Light';fill:#213e8a;fill-opacity:0.7372549;stroke-width:0.26458332"
         id="path828" />
      <path
         d="m 35.831535,100.72937 q -0.32435,0.15317 -0.608156,0.15317 -1.022603,0 -1.022603,-1.225322 v -3.099343 h -0.828894 v -0.378408 h 0.828894 v -1.198293 q 0.09911,-0.03604 0.207224,-0.07208 0.108116,-0.03153 0.207223,-0.06757 v 1.337943 h 1.216312 v 0.378408 h -1.216312 v 3.045285 q 0,0.47751 0.148661,0.69375 0.153165,0.21173 0.513554,0.21173 0.256777,0 0.554097,-0.16668 z"
         style="font-style:normal;font-variant:normal;font-weight:300;font-stretch:normal;font-family:'Segoe UI';-inkscape-font-specification:'Segoe UI Light';fill:#213e8a;fill-opacity:0.7372549;stroke-width:0.26458332"
         id="path830" />
      <path
         d="m 38.597519,100.90506 q -1.009088,0 -1.599225,-0.66221 -0.585632,-0.66672 -0.585632,-1.729866 0,-1.148739 0.612661,-1.797439 0.617166,-0.6487 1.621749,-0.6487 0.986565,0 1.558682,0.644195 0.572117,0.644195 0.572117,1.783924 0,1.076662 -0.585632,1.743376 -0.581127,0.66672 -1.59472,0.66672 z m 0.03153,-4.459807 q -0.81538,0 -1.301904,0.549593 -0.48202,0.549593 -0.48202,1.527147 0,0.905477 0.47301,1.45507 0.47301,0.549597 1.292895,0.549597 0.833398,0 1.283884,-0.540587 0.450486,-0.540584 0.450486,-1.500118 0,-0.986565 -0.450486,-1.513633 -0.445981,-0.527069 -1.265865,-0.527069 z"
         style="font-style:normal;font-variant:normal;font-weight:300;font-stretch:normal;font-family:'Segoe UI';-inkscape-font-specification:'Segoe UI Light';fill:#213e8a;fill-opacity:0.7372549;stroke-width:0.26458332"
         id="path832" />
    </g>
    <g
       aria-label="MPC"
       style="font-style:normal;font-weight:normal;font-size:10.58333302px;line-height:1.25;font-family:sans-serif;letter-spacing:0px;word-spacing:0px;fill:#213f8a;fill-opacity:0.7372549;stroke:none;stroke-width:0.27809229"
       id="text4520-3"
       transform="matrix(0.90520523,0,0,1,22.882267,-8.4666667)">
      <path
         d="m 28.847332,109.3623 h -1.219563 v -4.29854 q 0,-0.52805 0.07235,-1.29233 h -0.02067 q -0.113688,0.43541 -0.201538,0.62532 l -2.211751,4.96555 h -0.847494 l -2.216919,-4.92849 q -0.09302,-0.21771 -0.19637,-0.66238 h -0.02067 q 0.04134,0.39835 0.04134,1.3016 v 4.28927 h -1.136882 v -6.64235 h 1.73116 l 1.948202,4.4236 q 0.222209,0.50953 0.289388,0.75967 h 0.02584 q 0.191203,-0.52343 0.310059,-0.77819 l 1.984375,-4.40508 h 1.669148 z"
         style="font-style:normal;font-variant:normal;font-weight:600;font-stretch:normal;font-family:'Segoe UI';-inkscape-font-specification:'Segoe UI Semi-Bold';fill:#213f8a;fill-opacity:0.7372549;stroke-width:0.27809229"
         id="path4540"
         inkscape:connector-curvature="0" />
      <path
         d="m 30.83274,106.95364 v 2.40866 h -1.224731 v -6.64235 h 2.247924 q 1.276408,0 1.979208,0.53268 0.702799,0.53269 0.702799,1.50079 0,0.9681 -0.733805,1.58416 -0.733805,0.61606 -1.984375,0.61606 z m 0,-3.32581 v 2.4272 h 0.795817 q 0.79065,0 1.204061,-0.32888 0.413411,-0.32888 0.413411,-0.92641 0,-1.17191 -1.519287,-1.17191 z"
         style="font-style:normal;font-variant:normal;font-weight:600;font-stretch:normal;font-family:'Segoe UI';-inkscape-font-specification:'Segoe UI Semi-Bold';fill:#213f8a;fill-opacity:0.7372549;stroke-width:0.27809229"
         id="path4542"
         inkscape:connector-curvature="0" />
      <path
         d="m 40.426986,109.08439 q -0.837158,0.38909 -2.08256,0.38909 -1.612305,0 -2.583822,-0.91252 -0.971517,-0.91251 -0.971517,-2.39477 0,-1.59342 1.090373,-2.57542 1.09554,-0.98199 2.764689,-0.98199 1.07487,0 1.782837,0.27329 v 1.09316 q -0.749308,-0.39835 -1.653646,-0.39835 -1.204061,0 -1.953369,0.69018 -0.744141,0.69017 -0.744141,1.84355 0,1.09779 0.697632,1.75092 0.697632,0.64848 1.834513,0.64848 1.049032,0 1.819011,-0.44468 z"
         style="font-style:normal;font-variant:normal;font-weight:600;font-stretch:normal;font-family:'Segoe UI';-inkscape-font-specification:'Segoe UI Semi-Bold';fill:#213f8a;fill-opacity:0.7372549;stroke-width:0.27809229"
         id="path4544"
         inkscape:connector-curvature="0" />
    </g>
  </g>
</svg>
